<?xml version="1.0" standalone="no"?>
<!DOCTYPE svg PUBLIC "-//W3C//DTD SVG 20010904//EN"
 "http://www.w3.org/TR/2001/REC-SVG-20010904/DTD/svg10.dtd">
<svg version="1.0" xmlns="http://www.w3.org/2000/svg"
 width="920.000000pt" height="512.000000pt" viewBox="0 0 920.000000 512.000000"
 preserveAspectRatio="xMidYMid meet">

<g transform="translate(0.000000,512.000000) scale(0.100000,-0.100000)"
fill="#000000" stroke="none">
<path d="M5850 5103 c-35 -13 -50 -37 -50 -77 0 -26 38 -155 101 -341 55 -165
112 -347 127 -405 l26 -105 3 -762 c4 -850 6 -820 -61 -848 -20 -8 -66 -15
-104 -15 -58 0 -75 -4 -115 -29 -51 -33 -87 -81 -120 -162 l-22 -54 -3 -985
c-2 -711 0 -1002 8 -1045 24 -125 104 -232 189 -255 28 -7 161 -10 404 -8 320
3 366 5 393 20 52 28 95 79 128 148 l31 65 0 1035 0 1035 -23 56 c-48 119
-127 179 -237 179 -36 0 -81 6 -100 14 -69 29 -66 -10 -62 849 4 910 -11 790
158 1289 81 237 109 335 105 353 -13 51 -42 55 -418 54 -189 0 -350 -3 -358
-6z"/>
<path d="M3573 4149 c-58 -11 -93 -31 -137 -80 -70 -76 -79 -112 -85 -311 -7
-196 -12 -211 -82 -253 -32 -19 -57 -20 -359 -25 -309 -5 -327 -6 -365 -27
-52 -28 -89 -68 -114 -123 -19 -41 -21 -65 -21 -275 0 -358 15 -439 207 -1114
74 -262 180 -633 234 -826 130 -458 160 -607 166 -830 2 -93 9 -182 15 -198 6
-15 25 -38 42 -50 l31 -22 717 -3 c789 -3 769 -4 806 58 15 24 20 59 25 158
14 296 76 567 338 1491 186 655 213 767 249 1030 23 176 28 497 8 562 -15 51
-69 114 -122 142 -39 21 -55 22 -361 27 -300 5 -322 6 -360 26 -70 37 -79 65
-85 259 -7 196 -20 242 -93 313 -74 72 -90 75 -367 77 -135 1 -264 -2 -287 -6z
m1258 -1052 c44 -29 58 -71 58 -178 2 -205 -82 -839 -164 -1239 -69 -341 -279
-1240 -298 -1280 -12 -25 -37 -55 -56 -67 l-34 -23 -475 0 c-464 0 -477 1
-520 21 -55 27 -89 77 -112 171 -126 490 -271 1148 -340 1534 -74 420 -105
661 -105 829 0 134 3 165 18 192 35 66 -25 62 1033 63 l961 0 34 -23z"/>
<path d="M3192 2480 c-72 -17 -107 -76 -99 -165 16 -166 347 -1605 388 -1687
10 -20 33 -47 51 -60 33 -23 36 -23 305 -23 259 0 273 1 299 21 15 11 36 31
46 45 27 35 161 577 272 1094 114 528 120 561 114 631 -5 62 -28 99 -79 129
-32 19 -55 20 -324 23 -219 2 -296 -1 -314 -10 -56 -30 -57 -33 -116 -542 -30
-264 -58 -482 -60 -485 -3 -2 -10 0 -16 6 -11 11 -29 93 -144 658 -31 149 -62
285 -70 303 -23 51 -68 72 -150 71 -38 -1 -85 -5 -103 -9z"/>
</g>
</svg>
